<svg width="108" height="64" viewBox="0 0 108 64" fill="none" xmlns="http://www.w3.org/2000/svg">
<path fill-rule="evenodd" clip-rule="evenodd" d="M53.5636 9.44548L53.6397 8.96852C53.7774 8.10642 53.9009 7.33297 54.0278 6.56299C54.1342 5.91975 53.8924 5.76982 53.254 5.87622C51.4355 6.18091 49.9024 7.07081 48.3838 8.14933C48.6256 7.37067 49.7041 6.02131 50.8697 4.93796C51.9047 3.97552 53.0847 3.24522 54.3712 2.6842C55.2936 2.28441 56.2566 2.00414 57.2271 1.72168L57.2271 1.72167C57.595 1.6146 57.964 1.50721 58.3322 1.39288C57.1522 1.09303 55.9721 1.11721 54.7968 1.33485C51.5951 1.93456 49.2833 3.82075 47.5277 6.47593C46.6475 7.81078 45.9511 9.23751 45.4239 10.7513L45.4009 10.8188C45.2401 11.2922 45.0739 11.7815 44.326 11.883C44.4142 11.6239 44.5011 11.3655 44.5878 11.1079L44.5885 11.106C45.2911 9.0177 45.975 6.98545 47.107 5.12174C49.293 1.54281 52.5624 0 56.6395 0C58.0034 0 59.3382 0.324039 60.6295 0.788332C61.0987 0.957606 61.3018 1.12204 60.8278 1.57666C60.3269 2.05836 60.0263 2.67439 59.7252 3.29166C59.5728 3.60404 59.4202 3.91673 59.2415 4.2125C57.9743 6.3115 56.5621 8.2654 54.1874 9.25686C54.0753 9.3036 53.9551 9.33629 53.8152 9.37433C53.7379 9.39533 53.6547 9.41796 53.5636 9.44548ZM60.1198 15.1476C60.8791 17.2031 61.6094 19.2634 61.8561 21.4591C62.272 25.1976 61.8948 28.7572 59.5104 31.8622L59.4634 31.924L59.4634 31.9241C59.3385 32.0887 59.211 32.2567 59.0606 32.3942C58.9696 32.476 58.8803 32.5837 58.79 32.6927C58.5494 32.9832 58.3013 33.2827 57.9918 33.1245C57.678 32.9641 57.8116 32.6102 57.9396 32.2711L57.9397 32.271C57.9892 32.1398 58.0379 32.0108 58.0595 31.896C58.3642 30.2178 58.5286 28.5493 58.2239 26.8517C58.103 26.1794 57.8032 25.6136 57.4453 25.0622C57.1424 25.1242 57.0213 25.3239 56.9073 25.5117C56.8702 25.5728 56.8339 25.6327 56.7924 25.6861C56.1588 26.5035 55.5252 27.3111 54.7321 27.9786C53.7261 28.8298 53.6681 28.8056 53.315 27.582C52.3477 24.24 53.0974 21.077 54.3016 17.9624C54.43 17.6294 54.5609 17.2974 54.6919 16.9653C55.2914 15.4455 55.8909 13.9259 56.2362 12.3183L56.2519 12.2448C56.4209 11.4571 56.5891 10.673 56.5844 9.86626C56.5844 9.31975 56.7827 9.24236 57.247 9.45033C63.9744 12.4876 68.7286 17.2659 70.0344 24.743C70.8034 29.1441 69.5846 33.2212 66.9536 36.8727C62.4413 43.1213 54.3887 45.6701 47.4194 43.0052C40.4502 40.3404 36.2377 33.2647 36.9148 25.7441C37.6741 17.2901 43.5793 12.7004 50.9162 11.501C51.0497 11.479 51.1829 11.452 51.3167 11.4248C51.8323 11.32 52.3581 11.2131 52.9571 11.3897C52.4045 11.7426 51.8038 11.8365 51.2149 11.9286C50.9482 11.9703 50.6839 12.0117 50.4277 12.0765C44.8803 13.479 41.3353 16.8887 40.1794 22.5279C38.83 29.1151 42.3799 36.1714 48.7736 38.3284C55.6123 40.6402 63.2296 36.4036 64.4049 29.3569C65.198 24.6173 63.9067 20.2016 61.2757 16.1923C61.075 15.8878 60.8465 15.6019 60.6174 15.3153C60.5153 15.1875 60.4132 15.0597 60.3133 14.93C60.2262 14.7317 60.0376 14.5721 59.8877 14.7365C59.7673 14.8675 59.8879 14.9596 60.0049 15.0489C60.0477 15.0816 60.09 15.1139 60.1198 15.1476ZM5.11598 56.4118V55.3671H9.36717V61.0402H8.22578V60.2664C7.39392 60.7259 6.37827 61.0402 5.23689 61.0402C2.00134 61.0402 0.00390625 58.6897 0.00390625 55.7492V55.7202C0.00390625 52.9006 2.07872 50.4001 5.16434 50.4001C6.89577 50.4001 7.96945 50.9031 8.9996 51.7688L8.24996 52.6491C7.45195 51.9575 6.57173 51.4738 5.11598 51.4738C2.83803 51.4738 1.20333 53.3987 1.20333 55.6912V55.7202C1.20333 58.1771 2.77516 60.0004 5.27558 60.0004C6.44115 60.0004 7.51483 59.5554 8.22094 58.9896V56.4118H5.11598ZM22.2775 56.4553C22.2775 58.7042 21.0733 59.8504 19.1774 59.8504C17.2815 59.8504 16.0289 58.6026 16.0289 56.3827V50.4727H14.8682V56.4553C14.8682 59.3668 16.6044 60.9241 19.1435 60.9241C21.6826 60.9241 23.4383 59.3668 23.4383 56.3682V50.4727H22.2775V56.4553ZM29.2365 50.4726H30.3972V59.6908H36.1912V60.7645H29.2365V50.4726ZM76.8127 55.0479H70.8736V50.4727H69.7129V60.7645H70.8736V56.1312H76.8127V60.7645H77.9735V50.4727H76.8127V55.0479ZM49.1191 53.0601C49.1191 54.395 48.297 55.0866 47.4893 55.4396H47.4844C48.7032 55.8072 49.6898 56.5133 49.6898 57.9255V57.9546C49.6898 59.7198 48.2051 60.7645 45.9561 60.7645H41.3857V50.4727H45.7675C46.9428 50.4727 47.8665 50.8112 48.4566 51.3819C48.8822 51.8268 49.1191 52.3685 49.1191 53.0311V53.0601ZM45.99 59.7198C47.5473 59.7198 48.5194 59.0282 48.5194 57.882L48.5243 57.8869V57.8578C48.5243 56.7406 47.586 56.0925 45.7917 56.0925H43.8088V55.0624H45.5837C46.9766 55.0624 47.9487 54.4288 47.9487 53.2246V53.1955C47.9487 52.1799 47.1411 51.5173 45.6708 51.5173H42.5368V59.7198H45.99ZM103.95 56.5617C105.565 56.2666 106.74 55.2655 106.74 53.5631V53.5341C106.74 52.7264 106.445 52.0058 105.947 51.5076C105.299 50.8595 104.283 50.4775 103.021 50.4775H98.5958V60.7693H99.7566V57.9062H99.7517V53.2681H99.7566V51.5511H102.934C104.593 51.5511 105.565 52.3153 105.565 53.5776V53.6066C105.565 54.927 104.462 55.725 102.92 55.725H101.019V56.7696H102.697L105.681 60.7693H107.108L103.95 56.5665V56.5617ZM83.05 60.7645L87.7413 50.4001H88.8295L93.5208 60.7645H92.2682L91.0639 58.0464H86.8562V56.9873H90.6093L88.2685 51.7543L84.2446 60.7645H83.05ZM58.8544 50.4001L54.168 60.7645H55.3577L59.3864 51.7543L61.7224 56.9873H57.9742V58.0465H62.177L63.3861 60.7645H64.6339L59.9426 50.4001H58.8544ZM0 62.936H9.36326V64H0V62.936Z" fill="#15110F"/>
</svg>
